<svg id="Layer_1" data-name="Layer 1" xmlns="http://www.w3.org/2000/svg" viewBox="0 0 644.14 88.82"><defs><style>.cls-1{fill-rule:evenodd;}</style></defs><title>Vashi</title><path class="cls-1" d="M563.49,298.84q0-20.33,0-40.67c0-.13,0-.27,0-.4,0-.46.19-.62.66-.65.27,0,.54,0,.81,0H573c.91,0,1,.11,1,1q0,15.77,0,31.53c0,.08,0,.16,0,.24,0,.75.07.81.85.81h37.92c.76,0,.82-.1.82-.85q0-15.48,0-31c0-.3,0-.59,0-.89,0-.73.16-.88.91-.9H623a5,5,0,0,1,.57,0c.5.06.66.22.69.72,0,.27,0,.54,0,.81q0,40.43,0,80.85c0,.16,0,.32,0,.49a.54.54,0,0,1-.55.57,6.31,6.31,0,0,1-.65,0h-8.25a5.48,5.48,0,0,1-.64,0,.52.52,0,0,1-.49-.54c0-.13,0-.27,0-.4q0-18.35,0-36.71c0-.54,0-1.08,0-1.62s-.15-.62-.62-.67a7.19,7.19,0,0,0-.81,0H575c-.89,0-1,.07-1,1q0,18.92,0,37.84c0,.19,0,.38,0,.57a.55.55,0,0,1-.58.62H564a.52.52,0,0,1-.53-.58c0-.13,0-.27,0-.4Z" transform="translate(-99.76 -253.74)"/><path class="cls-1" d="M288.32,254c.29.66.53,1.22.78,1.77.83,1.81,1.67,3.61,2.5,5.42s1.54,3.43,2.31,5.14,1.53,3.32,2.29,5l1.87,4.1,2.29,5,1.82,4c.65,1.41,1.31,2.82,2,4.24.75,1.64,1.49,3.28,2.24,4.91s1.65,3.56,2.46,5.35,1.56,3.48,2.35,5.21,1.52,3.27,2.27,4.9c.63,1.37,1.24,2.74,1.87,4.11l1.75,3.8L319,321c.63,1.37,1.27,2.73,1.9,4.09s1.16,2.54,1.73,3.81l1.8,4c.64,1.42,1.28,2.84,1.94,4.26.45,1,.91,1.95,1.39,2.91.32.65.21.93-.5.93h-9.78a1,1,0,0,1-1-.68c-.4-.88-.79-1.77-1.19-2.65l-1.91-4.17-1.76-3.89c-.62-1.37-1.26-2.74-1.88-4.11s-1.24-2.69-1.81-4-.54-1.38-2-1.38H270c-.86,0-1,.09-1.33.88-.81,1.78-1.65,3.55-2.47,5.34-.95,2.08-1.86,4.17-2.81,6.25-.78,1.71-1.58,3.41-2.37,5.12a28,28,0,0,0-1.15,2.57c-.23.66-.63.77-1.23.77-2.67,0-5.34,0-8,0-.57,0-1.13,0-1.7,0s-.68-.21-.43-.76c.79-1.71,1.56-3.42,2.35-5.13.62-1.34,1.26-2.67,1.88-4,.75-1.63,1.49-3.28,2.24-4.91.83-1.81,1.67-3.61,2.5-5.42,1.12-2.47,2.23-4.95,3.36-7.41.77-1.69,1.57-3.36,2.34-5,1-2.1,1.9-4.21,2.86-6.31.78-1.71,1.6-3.41,2.38-5.12s1.56-3.48,2.35-5.21,1.52-3.27,2.27-4.9c.64-1.39,1.26-2.79,1.9-4.18.79-1.71,1.59-3.41,2.37-5.11s1.53-3.38,2.3-5.07c.63-1.37,1.28-2.72,1.91-4.09s1.15-2.54,1.73-3.82l1.81-4c.62-1.37,1.22-2.75,1.88-4.1A6.86,6.86,0,0,1,288.32,254ZM273.5,310.41c.43,0,.72.06,1,.06H301.9a3.26,3.26,0,0,0,.4,0c.34,0,.47-.23.37-.56a3.66,3.66,0,0,0-.16-.37l-1.43-3.24-1.79-4L297.41,298l-1.23-2.8-1.89-4.27-1.78-4.06c-.61-1.38-1.23-2.75-1.83-4.12s-1.18-2.76-1.78-4.14c-.18-.41-.38-.8-.57-1.2-.5.14-.57.54-.72.87l-1.91,4.36-1.23,2.8c-.61,1.4-1.22,2.81-1.83,4.21s-1.23,2.74-1.83,4.12-1.19,2.76-1.79,4.14c-.78,1.77-1.57,3.54-2.36,5.31s-1.7,3.83-2.54,5.75C273.92,309.35,273.75,309.79,273.5,310.41Z" transform="translate(-99.76 -253.74)"/><path class="cls-1" d="M456.14,315a13,13,0,0,0-5.25-11,27.65,27.65,0,0,0-6.44-3.79c-2-.87-4.1-1.74-6.14-2.63s-3.94-1.7-5.87-2.64a37.38,37.38,0,0,1-7.62-4.81,18.64,18.64,0,0,1-5.27-6.76,19.07,19.07,0,0,1-1.44-10.82,22.45,22.45,0,0,1,1.17-4.6,20,20,0,0,1,4-6.33,22.39,22.39,0,0,1,6.28-4.74,26.8,26.8,0,0,1,4.4-1.79,31.7,31.7,0,0,1,7.54-1.29,25.24,25.24,0,0,1,7.29.73,22.62,22.62,0,0,1,7.43,3.22,23.19,23.19,0,0,1,5.69,5.33c.65.85,1.22,1.77,1.82,2.67.42.63.39.75-.24,1.14l-6.09,3.65-1.09.68c-.45.28-.54.26-.85-.16-.69-.93-1.33-1.9-2.09-2.77a12.65,12.65,0,0,0-5.32-3.68,15.42,15.42,0,0,0-6.75-.9,14.72,14.72,0,0,0-10.47,5.23,10,10,0,0,0-2.31,6.73,9.13,9.13,0,0,0,2.46,6,16.79,16.79,0,0,0,5.37,3.93c1.38.65,2.78,1.29,4.19,1.88,1.11.47,2.26.84,3.39,1.28s2.14.87,3.2,1.31,2,.82,3,1.29,2.13,1,3.16,1.61a34.73,34.73,0,0,1,5.82,4,21.9,21.9,0,0,1,5.78,7.78,22.6,22.6,0,0,1,1.85,9,38.58,38.58,0,0,1-.24,5,23,23,0,0,1-1.32,5.23,26.8,26.8,0,0,1-2.09,4.36,25.39,25.39,0,0,1-11.26,10,28,28,0,0,1-5.58,1.81,30.19,30.19,0,0,1-7.47.62,23,23,0,0,1-5.58-.83,26.65,26.65,0,0,1-6.63-2.88,25.9,25.9,0,0,1-9.09-9.54,22.45,22.45,0,0,1-2.32-5.65c-.28-1.12-.58-2.24-.84-3.36s-.11-1.16.9-1.4c.78-.19,1.58-.34,2.37-.5l3.64-.73c.9-.18,1.79-.4,2.69-.55s.89,0,.94.78a15,15,0,0,0,7.54,12.53,16.08,16.08,0,0,0,9.92,2.22,14.58,14.58,0,0,0,10.4-5.68A14.28,14.28,0,0,0,455,320.9,15,15,0,0,0,456.14,315Z" transform="translate(-99.76 -253.74)"/><path class="cls-1" d="M136.33,316.29a5.83,5.83,0,0,0,.28-.52c.81-2,1.62-4,2.41-6s1.51-3.91,2.29-5.85c.6-1.49,1.25-3,1.85-4.46s1.16-3,1.76-4.5,1.25-3,1.86-4.55,1.17-2.95,1.76-4.42,1.25-3.09,1.88-4.64l1.26-3.15c.47-1.17,1-2.34,1.42-3.51s.82-2.1,1.24-3.15.9-2.18,1.34-3.28.83-2.1,1.24-3.14.83-2.1,1.26-3.14.89-2.19,1.33-3.29.79-2,1.18-3A1.18,1.18,0,0,1,162,255c2.64,0,5.28,0,7.92,0,.59,0,1.19,0,1.78,0s.77.24.55.83c-.43,1.1-.89,2.19-1.35,3.28s-.88,2.08-1.31,3.13c-.61,1.49-1.21,3-1.82,4.48-.47,1.15-.93,2.29-1.41,3.43-.61,1.46-1.24,2.91-1.85,4.38s-1.18,2.94-1.78,4.41c-.43,1-.87,2.08-1.3,3.12s-.87,2.14-1.31,3.2-.89,2.13-1.34,3.19l-1.23,3-1.42,3.42c-.41,1-.81,2-1.22,3s-.93,2.23-1.39,3.34l-1.2,2.9c-.47,1.14-.95,2.28-1.41,3.42s-.82,2-1.24,3.06-.89,2.13-1.33,3.2-.85,2.09-1.28,3.13l-1.33,3.2-1.26,3.05-1.35,3.28-1.81,4.4-1.84,4.47-1.81,4.4c-.34.82-.66,1.65-1,2.46-.07.15-.23.26-.35.39-.13-.12-.3-.22-.37-.37-.51-1.19-1-2.38-1.49-3.58-.65-1.56-1.3-3.13-1.95-4.69s-1.17-2.89-1.77-4.33-1.24-3-1.86-4.47-1.2-2.93-1.8-4.4l-1.26-3.05-1.36-3.27-1.34-3.2-1.26-3.05-1.36-3.27c-.43-1-.85-2.09-1.28-3.13s-.89-2.13-1.33-3.19-.85-2.09-1.28-3.13l-1.26-3.05c-.46-1.12-.92-2.23-1.38-3.35s-.88-2.08-1.31-3.11l-1.24-3L110,279.51c-.41-1-.81-2-1.22-3s-.91-2.18-1.36-3.27l-1.26-3.05c-.42-1-.82-2-1.24-3.06q-1-2.35-1.94-4.69c-.45-1.07-.91-2.12-1.36-3.19s-.77-1.83-1.13-2.76a1.59,1.59,0,0,0-.52-.79c-.35-.26-.26-.58.18-.67A4.62,4.62,0,0,1,101,255c3.18,0,6.36,0,9.54,0a1.07,1.07,0,0,1,1.14.7l1.28,3.13,1.42,3.5,1.17,2.91c.47,1.17,1,2.34,1.42,3.51.6,1.5,1.18,3,1.78,4.5s1.19,2.94,1.78,4.41l1.9,4.71c.63,1.54,1.27,3.08,1.89,4.63s1.18,3,1.79,4.49c.44,1.1.91,2.18,1.35,3.27s.82,2.1,1.24,3.15S129.61,300,130,301s.89,2.24,1.34,3.36l1.24,3.06,1.36,3.36c.69,1.72,1.37,3.45,2.07,5.17C136.08,316.07,136.17,316.13,136.33,316.29Z" transform="translate(-99.76 -253.74)"/><path class="cls-1" d="M733,298.92V258.25c0-1,.13-1.13,1.11-1.13h8.41a2.32,2.32,0,0,1,.64.06.9.9,0,0,1,.71.95c0,.22,0,.43,0,.65q0,40.27,0,80.54c0,1-.43,1.29-1.29,1.29H734a3.67,3.67,0,0,1-.56,0A.51.51,0,0,1,733,340c0-.38,0-.75,0-1.13q0-20,0-39.94Z" transform="translate(-99.76 -253.74)"/></svg>