<?xml version="1.0" encoding="UTF-8"?>
<svg width="20px" height="18px" viewBox="0 0 20 18" version="1.1" xmlns="http://www.w3.org/2000/svg" xmlns:xlink="http://www.w3.org/1999/xlink">
    <!-- Generator: Sketch 49.1 (51147) - http://www.bohemiancoding.com/sketch -->
    <title>Group 6</title>
    <desc>Created with Sketch.</desc>
    <defs></defs>
    <g id="Page-2" stroke="none" stroke-width="1" fill="none" fill-rule="evenodd" stroke-linecap="round">
        <g id="Carat-Selection-Copy-12" transform="translate(-155.000000, -561.000000)" stroke="#000000">
            <g id="Group-6" transform="translate(156.000000, 561.000000)">
                <g id="Group-8">
                    <g id="Group-5">
                        <path d="M1.08,1.08 L3.44842105,3.55764706" id="Line-4-Copy-4"></path>
                        <polyline id="Line-2" stroke-linejoin="round" points="0.492631579 3.55764706 0.492631579 0.508235294 3.44842105 0.508235294"></polyline>
                    </g>
                    <g id="Group-5" transform="translate(2.000000, 15.280000) scale(1, -1) translate(-2.000000, -15.280000) translate(0.000000, 13.280000)">
                        <path d="M1.08,1.08 L3.44842105,3.55764706" id="Line-4-Copy-4"></path>
                        <polyline id="Line-2" stroke-linejoin="round" points="0.492631579 3.55764706 0.492631579 0.508235294 3.44842105 0.508235294"></polyline>
                    </g>
                </g>
                <g id="Group-8" transform="translate(16.000000, 9.000000) scale(-1, 1) translate(-16.000000, -9.000000) translate(14.000000, 0.000000)">
                    <g id="Group-5">
                        <path d="M1.08,1.08 L3.44842105,3.55764706" id="Line-4-Copy-4"></path>
                        <polyline id="Line-2" stroke-linejoin="round" points="0.492631579 3.55764706 0.492631579 0.508235294 3.44842105 0.508235294"></polyline>
                    </g>
                    <g id="Group-5" transform="translate(2.000000, 15.280000) scale(1, -1) translate(-2.000000, -15.280000) translate(0.000000, 13.280000)">
                        <path d="M1.08,1.08 L3.44842105,3.55764706" id="Line-4-Copy-4"></path>
                        <polyline id="Line-2" stroke-linejoin="round" points="0.492631579 3.55764706 0.492631579 0.508235294 3.44842105 0.508235294"></polyline>
                    </g>
                </g>
                <g id="Group-3-Copy-6" transform="translate(2.660208, 4.065882)" stroke-linejoin="round">
                    <path d="M12.8084211,4.02168798 L0,4.02168798" id="Stroke-428"></path>
                    <polygon id="Stroke-429" points="6.40421053 13.2144049 0 4.02197524 2.78443936 0.000287263427 10.0239817 0.000287263427 12.8084211 4.02197524"></polygon>
                    <polygon id="Stroke-430" points="3.8982151 4.02197524 6.40421053 0.000287263427 8.91020595 4.02197524 6.40421053 13.2144049"></polygon>
                    <path d="M2.78443936,0 L3.8982151,4.02168798" id="Stroke-431"></path>
                    <path d="M10.0239817,0 L8.91020595,4.02168798" id="Stroke-432"></path>
                </g>
            </g>
        </g>
    </g>
</svg>