<?xml version="1.0" encoding="UTF-8"?>
<svg viewBox="0 0 26 26" version="1.1" xmlns="http://www.w3.org/2000/svg" xmlns:xlink="http://www.w3.org/1999/xlink">
    <defs></defs>
    <g id="Moodboard" stroke="none" stroke-width="1" fill="none" fill-rule="evenodd">
        <g id="1c.-Desktop---Inspiration" transform="translate(-666.000000, -1301.000000)">
            <g id="Content" transform="translate(0.000000, 427.000000)">
                <g id="Entry" transform="translate(402.000000, 862.000000)">
                    <g id="Comment" transform="translate(264.000000, 12.000000)">
                        <rect id="Rectangle" fill="#000000" x="0" y="0" width="26" height="26" rx="13"></rect>
                        <path d="M11.9096774,18.4516129 C11.6317535,18.4516129 11.4064516,18.226311 11.4064516,17.9483871 L11.4064516,16.4387097 L9.39354839,16.4387097 C8.83770051,16.4387097 8.38709677,15.9881059 8.38709677,15.4322581 L8.38709677,9.39354839 C8.38709677,8.83496774 8.84,8.38709677 9.39354839,8.38709677 L17.4451613,8.38709677 C18.0010092,8.38709677 18.4516129,8.83770051 18.4516129,9.39354839 L18.4516129,15.4322581 C18.4516129,15.9881059 18.0010092,16.4387097 17.4451613,16.4387097 L14.3754839,16.4387097 L12.5135484,18.3056774 C12.4129032,18.4012903 12.2870968,18.4516129 12.1612903,18.4516129 L12.1612903,18.4516129 L11.9096774,18.4516129 Z" id="Shape" fill="#FFFFFF" fill-rule="nonzero"></path>
                    </g>
                </g>
            </g>
        </g>
    </g>
</svg>