<svg xmlns="http://www.w3.org/2000/svg" width="87" height="86" viewBox="0 0 87 86">
    <g fill="none" fill-rule="evenodd" opacity=".1">
        <ellipse cx="43.225" cy="43" stroke="#000" stroke-width="2.176" rx="42.137" ry="41.912"/>
        <path fill="#000" fill-rule="nonzero" d="M51.118 30.578a8.43 8.43 0 0 0-5.97 2.454l-1.602 1.614-1.601-1.597c-3.29-3.279-8.653-3.279-11.942 0a8.38 8.38 0 0 0 0 11.876c4.262 4.248 8.53 8.484 12.793 12.733a1.074 1.074 0 0 0 1.517 0l12.776-12.75c3.285-3.28 3.29-8.598 0-11.876a8.43 8.43 0 0 0-5.97-2.454zm0 2.092c1.605 0 3.212.607 4.453 1.845a6.263 6.263 0 0 1 0 8.91L43.546 55.418c-4.008-3.994-8.017-7.98-12.025-11.975a6.261 6.261 0 0 1 0-8.91 6.27 6.27 0 0 1 8.906 0l2.352 2.355a1.074 1.074 0 0 0 1.518 0l2.368-2.372a6.278 6.278 0 0 1 4.453-1.845z"/>
        <path stroke="#000" stroke-linecap="round" stroke-linejoin="round" stroke-width="1.92" d="M43.545 36.311l-5.123 5.733 8.325 4.46-3.202 8.918"/>
    </g>
</svg>
