<svg width="81px" height="116px" viewBox="0 0 81 116" version="1.1" xmlns="http://www.w3.org/2000/svg" xmlns:xlink="http://www.w3.org/1999/xlink">
    <!-- Generator: Sketch 47.1 (45422) - http://www.bohemiancoding.com/sketch -->
    <desc>Created with Sketch.</desc>
    <defs>
        <polygon id="path-1" points="6.5597 0.371133333 6.5597 3.41696398 0.481407371 3.41696398 0.481407371 0.371133333 6.5597 0.371133333"></polygon>
    </defs>
    <g id="Page-1" stroke="none" stroke-width="1" fill="none" fill-rule="evenodd">
        <g id="1.-Sign-in" transform="translate(-924.000000, -402.000000)">
            <g id="Page-1" transform="translate(924.000000, 402.000000)">
                <g id="Group-3" transform="translate(2.000000, 27.000000)" fill="#000000">
                    <path d="M31.6459286,9.3134584 C31.5395,9.2273064 31.4337857,9.1418664 31.3273571,9.0564264 C31.0909286,9.3405144 30.8545,9.6238904 30.6187857,9.9079784 C30.7380714,10.0033864 30.8580714,10.0987944 30.9773571,10.1934904 C31.2002143,9.9001464 31.4230714,9.6068024 31.6459286,9.3134584 M26.1102143,9.8730904 C26.2316429,10.3857304 26.3130714,10.7289144 26.4473571,11.2942424 C27.1952143,10.5096184 27.0259286,10.1885064 26.1102143,9.8730904 M26.9030714,12.9816824 C27.7280714,12.2554424 28.3137857,11.7940664 28.2280714,10.6028904 C27.3273571,11.1853064 26.7637857,11.6530904 26.9030714,12.9816824 M28.8559286,4.7317384 C27.2966429,5.2109144 26.2959286,6.3422824 25.8709286,8.0332824 C26.9302143,6.8620424 27.7759286,5.9264744 28.8559286,4.7317384 M43.0587857,8.2006024 C44.1923571,7.2386904 45.0259286,6.5323864 45.8595,5.8260824 C43.5380714,6.1080344 43.2616429,6.3294664 43.0587857,8.2006024 M32.1509286,25.3797384 C32.3052143,23.5477624 32.1973571,23.3718984 30.7037857,22.8870264 C30.8309286,25.0422504 30.8309286,25.0422504 32.1509286,25.3797384 M32.4573571,19.2878664 C31.4309286,19.8937784 31.3230714,20.7154264 31.4852143,21.6944264 C31.8130714,21.8104824 32.1223571,21.9194184 32.4016429,22.0176744 C33.1245,21.1326584 33.0995,20.2939224 32.4573571,19.2878664 M44.3716429,21.9856344 C42.0109286,23.3071064 41.2680714,24.1138024 41.5016429,25.1996024 C42.5523571,24.2697304 43.7795,23.6744984 44.3716429,21.9856344 M32.6952143,6.4291464 C32.0795,6.4291464 31.6730714,6.3130904 31.3916429,6.4505064 C30.4937857,6.8919464 29.0002143,8.9994664 28.8187857,9.9385944 C30.0902143,9.5761864 31.2395,8.5744024 32.6952143,6.4291464 M27.7845,15.2572344 C28.7680714,14.1358344 29.5137857,13.3027944 30.2366429,12.4512424 C30.4495,12.2006184 30.5995,11.8980184 30.7895,11.6018264 C30.1652143,11.0471784 29.5473571,10.8271704 28.9966429,11.5206584 C28.4066429,12.2632744 27.8602143,13.0535944 27.4137857,13.8866344 C27.2887857,14.1201704 27.5859286,14.5786984 27.7845,15.2572344 M46.7580714,10.7047064 C46.6795,10.5751224 46.6016429,10.4455384 46.5245,10.3159544 C45.8987857,10.5345384 45.2787857,10.7730584 44.6466429,10.9681464 C42.6830714,11.5733464 42.4237857,11.9129704 42.3623571,14.2518904 C43.8966429,13.0137224 45.3273571,11.8595704 46.7580714,10.7047064 M31.6459286,15.9492984 C31.1580714,16.4298984 30.6380714,16.8471304 30.2366429,17.3562104 C29.1973571,18.6741224 29.2266429,18.7752264 30.5652143,20.2390984 C31.4166429,18.9703144 32.9366429,17.9706664 31.6459286,15.9492984 M27.8330714,9.5833064 C28.7995,8.1472024 30.0302143,7.2066504 30.9016429,5.4971384 C30.0330714,5.4971384 29.3045,5.2785544 29.0316429,5.5370104 C28.0716429,6.4455224 26.9352143,7.2536424 26.3837857,8.6812024 C26.8530714,8.9731224 27.2652143,9.2301544 27.8330714,9.5833064 M30.9095,12.5815384 C30.1209286,13.5277864 29.4923571,14.2355144 28.9180714,14.9838264 C28.0102143,16.1671704 28.0295,16.2405064 29.0909286,17.5997144 C29.5909286,17.0571704 30.0166429,16.4377304 30.5873571,16.0083944 C31.8066429,15.0899144 31.5930714,14.0560904 30.9095,12.5815384 M43.0537857,10.2127144 C45.2680714,9.6075144 47.1516429,9.2059464 48.9509286,8.5694184 C50.6702143,7.9606584 51.1680714,6.6277944 50.5316429,5.0122664 C48.8030714,4.5843544 47.4016429,5.2749944 46.2266429,6.4177544 C45.1437857,7.4693784 43.4445,8.0140584 43.0537857,10.2127144 M39.7216429,25.4658904 C39.0180714,26.3566024 38.4102143,27.1540424 37.7716429,27.9265624 C37.0930714,28.7460744 36.3073571,29.3149624 35.1102143,28.8799304 C35.2473571,28.0326504 35.3745,27.2487384 35.5487857,26.1721944 C34.6487857,26.6592024 34.0809286,26.9660744 33.5245,27.2672504 C33.0773571,26.8642584 32.7173571,26.5395864 32.2802143,26.1465624 C31.6837857,26.8393384 31.1587857,27.4480984 30.5837857,28.1159544 C31.3445,28.8984424 32.0616429,29.6261064 33.1166429,29.8347224 C34.2866429,30.0661224 35.4630714,30.3423784 36.6466429,30.4064584 C38.4102143,30.5018664 40.2266429,31.0351544 42.1366429,29.9991944 C41.1145,29.5563304 41.1616429,28.9190904 41.5666429,28.1821704 C41.7759286,27.8012504 41.9087857,27.3776104 42.0759286,26.9724824 C42.0066429,26.9532584 41.9380714,26.9333224 41.8695,26.9133864 C41.3409286,27.4630504 40.8123571,28.0120024 40.2616429,28.5837384 C38.9759286,27.6211144 40.4695,26.5645064 39.7216429,25.4658904 M32.2852143,10.5423704 C33.3730714,10.6456104 34.1559286,10.8136424 34.9266429,10.7737704 C36.8466429,10.6748024 38.7609286,10.4832744 40.6773571,10.3237864 C41.4852143,10.2568584 41.9673571,9.7969064 41.9130714,8.9987544 C41.8595,8.2269464 41.6716429,7.4643944 41.5423571,6.6975704 C39.1673571,6.0147624 36.9252143,6.4611864 34.6930714,6.8364104 C34.3552143,6.8933704 33.9637857,7.2166184 33.7859286,7.5256264 C33.2837857,8.3956904 32.8809286,9.3234264 32.2852143,10.5423704 M48.7809286,3.7150024 C48.2537857,3.4700744 47.9302143,3.2756984 47.5802143,3.1653384 C46.1145,2.7032504 44.6587857,2.1934584 43.1652143,1.8452904 C42.1873571,1.6174504 41.1395,1.4857304 40.1445,1.5718824 C37.5395,1.7968744 34.9480714,2.1735224 32.3487857,2.4725624 C31.3052143,2.5921784 30.3795,2.9389224 29.3445,3.8346184 C30.1952143,4.2312024 30.8695,4.5672664 31.5623571,4.8570504 C31.7902143,4.9517464 32.1737857,4.8271464 32.3059286,4.9688344 C33.1280714,5.8559864 34.1530714,5.6758504 35.1723571,5.6110584 C36.8730714,5.5035464 38.5745,5.4173944 40.2759286,5.3134424 C41.3480714,5.2479384 42.4423571,5.2792664 43.4859286,5.0678024 C45.1873571,4.7231944 46.8559286,4.2162504 48.7809286,3.7150024 M40.6023571,20.9304504 C40.5237857,20.8264984 40.4459286,20.7218344 40.3673571,20.6178824 C40.6566429,20.3587144 40.9287857,20.0774744 41.2359286,19.8432264 C43.0002143,18.4975464 44.6973571,17.0450664 46.5616429,15.8553144 C49.0659286,14.2568744 50.0052143,11.6103704 51.5859286,9.2536504 C49.6016429,9.4223944 48.9545,9.6060904 48.0952143,10.2924584 C46.1823571,11.8189864 44.2559286,13.3291384 42.3902143,14.9104904 C41.8516429,15.3683064 41.3295,15.9870344 41.0945,16.6370904 C40.1923571,19.1319384 39.4109286,21.6695064 38.5409286,24.3231304 C38.2637857,24.3573064 37.8387857,24.4107064 37.3666429,24.4690904 C37.2580714,24.8834744 37.1495,25.2608344 37.0609286,25.6424664 C36.9702143,26.0340664 36.8987857,26.4299384 36.8180714,26.8236744 C37.5616429,26.3800984 37.9887857,25.7805944 38.5037857,25.2679544 C38.9337857,24.8393304 39.4173571,24.4135544 39.9595,24.1558104 C42.2159286,23.0821144 43.9887857,21.3875544 45.6437857,19.6132504 C46.5266429,18.6684264 47.0095,17.3540744 47.6730714,16.2070424 L47.4030714,15.9905944 C45.1359286,17.6374504 42.8687857,19.2843064 40.6023571,20.9304504 M37.8595,22.8428824 C39.1252143,19.0493464 40.3659286,15.3327064 41.7159286,11.2864104 C38.4616429,11.5199464 35.5387857,11.7299864 32.4773571,11.9492824 C32.4523571,16.0062584 34.0287857,19.5947384 35.0830714,23.4580504 C35.6159286,22.9589384 36.0159286,22.5837144 36.4566429,22.1700424 C36.8852143,22.3758104 37.2737857,22.5623544 37.8595,22.8428824 M28.6695,27.1960504 C27.7395,27.4267384 26.8737857,27.5214344 26.1095,27.8510904 C21.4237857,29.8710344 17.0380714,32.4142984 13.2566429,35.8525464 C11.6273571,37.3335064 10.0745,38.9739544 8.81878571,40.7724664 C6.50521429,44.0882504 4.75592857,47.7073464 3.41092857,51.5557064 C1.91092857,55.8462184 1.64592857,60.2328504 1.8745,64.6657624 C2.13807143,69.7679544 4.2245,74.2129704 7.4995,78.0855384 C12.2330714,83.6832824 18.4659286,86.4344504 25.6330714,87.2525384 C28.8116429,87.6156584 31.9966429,87.4668504 35.1902143,87.1485864 C38.6566429,86.8025544 41.7787857,85.6419944 44.3880714,83.4205544 C46.0209286,82.0293064 47.5195,80.3817384 48.7202143,78.6088584 C51.4266429,74.6116904 53.9995,70.5440344 55.9587857,66.0755224 C58.0487857,61.3051224 58.3052143,56.3816424 58.0166429,51.3705864 C57.8302143,48.1110504 56.2802143,45.2758664 54.3945,42.6599784 C53.2009286,41.0038664 51.9595,39.3783704 50.6609286,37.8027144 C48.6437857,35.3562824 46.5602143,32.9625384 44.5002143,30.5509944 C44.4323571,30.4719624 44.3030714,30.4456184 44.2052143,30.3957784 C41.8295,31.7158264 40.9395,31.8817224 38.0152143,31.6275384 C37.6287857,31.5940744 37.2287857,31.7222344 36.8352143,31.7749224 C36.8245,31.9294264 36.8145,32.0832184 36.8045,32.2384344 C37.3066429,32.3915144 37.8009286,32.5894504 38.3130714,32.6905544 C42.4195,33.4929784 45.4759286,35.7578504 47.6173571,39.3000504 C49.0595,41.6866744 50.4923571,44.0804184 51.9187857,46.4770104 C53.7659286,49.5791944 54.1087857,52.9946584 53.9795,56.5012584 C53.8266429,60.6479464 52.5545,64.5447224 51.1552143,68.3895224 C50.4202143,70.4087544 49.5280714,72.4215784 48.0002143,73.9986584 C46.0609286,76.0008024 44.0423571,77.9296104 41.9966429,79.8235304 C41.3409286,80.4301544 40.5302143,80.9093304 39.7216429,81.3073384 C36.0009286,83.1364664 31.9795,83.5266424 27.9109286,83.6284584 C27.4637857,83.6391384 27.0095,83.5216584 26.5623571,83.4447624 C23.8345,82.9748424 21.3580714,81.7822424 18.9087857,80.6031704 C16.4559286,79.4226744 13.9187857,78.2457384 12.3623571,75.8220904 C11.4780714,74.4450824 10.4880714,73.0915704 9.88164286,71.5920984 C8.97307143,69.3457384 8.16878571,67.0203464 7.6645,64.6565064 C6.90307143,61.0829784 7.34164286,57.5414904 8.69092857,54.1238904 C9.29521429,52.5945144 9.6345,50.9163304 10.4687857,49.5300664 C12.3130714,46.4663304 14.3209286,43.4915944 16.4116429,40.5880584 C17.4316429,39.1718904 18.6845,37.8774744 20.0130714,36.7375624 C22.4959286,34.6065464 25.3016429,32.9860344 28.5052143,32.1202424 C29.8009286,31.7699384 31.0780714,31.3484344 32.5730714,30.8963144 C30.8709286,30.0226904 29.5380714,29.0088024 28.6695,27.1960504 M28.4866429,82.6181304 C30.3523571,82.4038184 32.2295,82.2564344 34.0823571,81.9602424 C38.0530714,81.3251384 41.3809286,79.4632584 44.0637857,76.4835384 C45.5059286,74.8829624 47.1516429,73.3927464 48.2609286,71.5814184 C51.0366429,67.0488264 52.3045,61.9822344 52.8109286,56.7248264 C53.1937857,52.7518664 52.2859286,49.0501784 50.2473571,45.6375624 C49.1159286,43.7422184 47.8645,41.9180744 46.6795,40.0526344 C44.5080714,36.6328984 41.5952143,34.2939784 37.4737857,33.6417864 C36.1252143,33.4288984 34.7680714,33.1811224 33.4652143,32.7859624 C32.4852143,32.4883464 31.5587857,32.4847864 30.6066429,32.7197464 C26.0709286,33.8375864 22.0752143,35.9123544 18.9530714,39.4474344 C17.8280714,40.7219144 16.7216429,42.0355544 15.7902143,43.4517224 C13.8302143,46.4278824 11.4323571,49.1733544 10.4787857,52.7169784 C9.83021429,55.1256744 8.93735714,57.5244024 8.71378571,59.9793784 C8.29521429,64.5653704 9.69878571,68.8622904 11.8445,72.8758344 C13.0845,75.1962424 14.7216429,77.2382584 17.2152143,78.4130584 C19.1673571,79.3336744 21.0609286,80.3902824 23.0537857,81.2083704 C24.7780714,81.9160984 26.5166429,82.7356104 28.4866429,82.6181304 M29.6552143,25.7179384 C29.5016429,24.2099224 29.4687857,22.7346584 29.1645,21.3170664 C28.9730714,20.4242184 28.5359286,19.4708504 27.9230714,18.8058424 C26.7937857,17.5804904 26.8587857,15.9792024 26.2695,14.5957864 C25.6337857,13.1077064 25.5330714,11.4302344 24.4052143,10.0938104 C23.9573571,9.5633704 23.9023571,8.6377704 23.8402143,7.8780664 C23.8116429,7.5199304 24.1195,7.0685224 24.3937857,6.7666344 C25.0702143,6.0204584 25.9566429,5.4280744 26.4973571,4.6042904 C27.1323571,3.6352584 27.9559286,3.0329064 28.9645,2.5992984 C30.0645,2.1258184 31.1637857,1.6459304 32.2859286,1.2308344 C32.6937857,1.0806024 33.1816429,1.0129624 33.6109286,1.0706344 C35.7459286,1.3604184 37.8195,1.0300504 39.8916429,0.5765064 C40.6080714,0.4191544 41.3459286,0.3536504 42.0623571,0.1970104 C42.7202143,0.0531864 43.2287857,0.2824504 43.8273571,0.5537224 C45.2759286,1.2080504 46.7937857,1.7185544 48.3016429,2.2340424 C49.1095,2.5102984 49.9530714,2.6826024 50.7837857,2.8919304 C51.6680714,3.1147864 52.1452143,3.6366824 52.1516429,4.5807944 C52.1616429,5.8267944 52.2059286,7.0421784 53.1187857,8.0824104 C53.5102143,8.5288344 53.2487857,9.1119624 52.9230714,9.6545064 C50.9095,13.0044664 48.8930714,16.3530024 46.9859286,19.7634824 C46.1016429,21.3462584 45.4709286,23.0692984 44.7087857,24.7218504 C44.2109286,25.7998184 43.6837857,26.8642584 43.1366429,28.0034584 C44.8987857,28.8507384 45.9052143,30.4520264 47.1416429,31.8162184 C50.2723571,35.2708424 53.2802143,38.8265704 55.9387857,42.6606904 C58.2330714,45.9686424 59.5373571,49.5848904 59.3559286,53.6639384 C59.3109286,54.6849464 59.3245,55.7102264 59.3352143,56.7319464 C59.3880714,61.4396904 57.6709286,65.6547304 55.5109286,69.6853624 C53.8487857,72.7846984 52.0516429,75.8384664 50.0223571,78.7064024 C48.4573571,80.9185864 46.6109286,83.0075944 44.5752143,84.7947144 C42.2387857,86.8459864 39.3002143,87.9075784 36.1859286,88.3041624 C34.1545,88.5626184 32.1130714,88.7434664 30.0730714,88.9285864 C27.4809286,89.1649704 24.9373571,88.7954424 22.4552143,88.1048024 C18.8837857,87.1087144 15.3709286,85.9189624 12.2609286,83.8392104 C9.78664286,82.1845224 7.70664286,80.0848344 5.75735714,77.8441704 C4.0945,75.9338744 2.98164286,73.7181304 1.86592857,71.4796024 C0.811642857,69.3656744 0.768071429,67.0751704 0.558785714,64.8280984 C0.261642857,61.6475944 0.355214286,58.4343384 1.11521429,55.3321544 C1.80021429,52.5347064 2.64021429,49.7344104 3.79735714,47.1042824 C4.93592857,44.5154504 6.39807143,42.0262984 8.02307143,39.7058904 C9.28092857,37.9109384 10.8952143,36.3132104 12.5516429,34.8543224 C16.5995,31.2864904 21.2473571,28.6364264 26.2016429,26.5175144 C26.6637857,26.3195784 27.1873571,26.2576344 27.6873571,26.1572424 C28.1337857,26.0675304 28.5895,26.0248104 29.0359286,25.9358104 C29.2516429,25.8923784 29.4559286,25.7898504 29.6552143,25.7179384" id="Fill-1"></path>
                </g>
                <path d="M66,9.04974803 C65.7918149,10.3233347 65.7323335,11.4661816 65.3975597,12.5233713 C65.0406711,13.6459309 64.4382308,14.6956068 63.8967972,15.7535478 C63.8296899,15.8857905 63.4773767,15.8767739 63,16 C63.0777834,15.3928861 63.0205897,14.90449 63.2104728,14.5423255 C63.7229283,13.5617765 64.0317743,12.5812274 63.9722928,11.4534081 C63.9456024,10.9477303 64.194967,10.3932129 64.4351805,9.91909306 C64.7402135,9.32024432 65.1954753,8.84086478 66,9.04974803" id="Fill-4" fill="#000000"></path>
                <path d="M72.4588155,28 C73.4413706,29.8982746 75.2380617,29.6388989 76.7751346,29.9376896 C77.2650808,30.0330483 77.884836,29.825802 78,30.6668661 C77.0500636,30.9968073 76.113441,31.1328524 75.1169065,30.8359689 C74.5131278,30.6560587 73.8840529,30.5543428 73.2716202,30.3998616 C71.8856584,30.0514843 71.6613217,29.509211 72.4588155,28" id="Fill-6" fill="#000000"></path>
                <path d="M45,5.88112431 C44.1785915,6.16950149 43.7434861,5.94676515 43.5923751,5.06393272 C43.3959897,3.91779939 43.1819649,2.77461621 43.0261501,1.61963243 C42.9026742,0.710248647 43.1925485,0.388682282 44.4108437,0 C44.313239,1.96332492 44.2179862,3.91189909 45,5.88112431" id="Fill-8" fill="#000000"></path>
                <path d="M21,14.1775283 C19.8265381,15.2337982 18.9599591,15.2812034 18.0225047,14.2703359 C17.2531054,13.4404095 16.664913,12.4696028 16,11.5668993 C17.1069706,10.8077471 17.1997662,10.8050764 17.7806518,11.5949419 C18.0385796,11.9454739 18.2446295,12.3280546 18.4747918,12.6952786 C19.2704954,13.9618677 19.2712261,13.9618677 21,14.1775283" id="Fill-10" fill="#000000"></path>
                <path d="M9,32 C8.87828243,33.3028851 7.81190127,33.718372 6.82328412,33.8722561 C5.58379353,34.0652524 4.2401668,34.1280884 3,33.4067568 C3.54029077,32.5789888 4.28614899,32.6450307 4.83590668,32.8008383 C6.39118675,33.2400491 7.70032683,32.8745744 9,32" id="Fill-12" fill="#000000"></path>
                <g id="Group-16" transform="translate(74.000000, 42.000000)">
                    <mask id="mask-2" fill="white">
                        <use xlink:href="#path-1"></use>
                    </mask>
                    <g id="Clip-15"></g>
                    <path d="M6.55984,3.2618 C5.94944,3.3418 5.65614,3.46713333 5.43144,3.3958 C4.06364,2.96313333 2.69164,2.53113333 1.36374,2.0018 C0.77504,1.76713333 0.21574,1.33646667 0.61754,0.371133333 C2.31364,1.7638 4.82454,1.3178 6.55984,3.2618" id="Fill-14" fill="#000000" mask="url(#mask-2)"></path>
                </g>
                <path d="M0,55.5998754 C1.20744344,54.5101238 1.52750381,52.8064551 2.9978988,52 C3.04684921,53.4929791 2.23226419,54.560041 1.41767917,55.622565 C1.10389449,56.031627 0.731745867,56.2209235 0,55.5998754" id="Fill-17" fill="#000000"></path>
            </g>
        </g>
    </g>
</svg>