<?xml version="1.0" encoding="UTF-8"?>
<svg viewBox="0 0 18 14" version="1.1" xmlns="http://www.w3.org/2000/svg" xmlns:xlink="http://www.w3.org/1999/xlink">
    <defs></defs>
    <g id="Moodboard" stroke="none" stroke-width="1" fill="none" fill-rule="evenodd">
        <g id="1a.-Desktop---Inspiration" transform="translate(-1057.000000, -573.000000)" fill-rule="nonzero" fill="#000000">
            <g id="Popup" transform="translate(1033.000000, 475.000000)">
                <g id="Gallery" transform="translate(0.000000, 93.000000)">
                    <path d="M39.5342466,5 L26.4657534,5 C25.1060384,5 24,6.06437966 24,7.37288136 L24,16.6271186 C24,17.9356203 25.1060384,19 26.4657534,19 L39.5342466,19 C40.8939616,19 42,17.9356203 42,16.6271186 L42,7.37288136 C42,6.06437966 40.8939616,5 39.5342466,5 Z M26.4657534,5.94915254 L39.5342466,5.94915254 C40.3501151,5.94915254 41.0136986,6.58774237 41.0136986,7.37288136 L41.0136986,12.8382915 L38.6483507,9.10717288 C38.5783233,8.99631186 38.4637151,8.91810169 38.3319452,8.89038644 C38.1999781,8.86267119 38.0626849,8.88848814 37.9506411,8.96119322 L34.1715288,11.4244339 L31.2443836,7.0564339 C31.1725808,6.94917966 31.0587616,6.87419661 30.9285699,6.84856949 C30.7983781,6.82294237 30.6634521,6.84894915 30.5535781,6.92051525 L24.9863014,10.5479864 L24.9863014,7.37288136 C24.9863014,6.58774237 25.6498849,5.94915254 26.4657534,5.94915254 Z M24.9863014,16.6271186 L24.9863014,11.6941831 L30.6888986,7.97882034 L37.4387507,18.0510373 L26.4657534,18.0510373 C25.6498849,18.0508475 24.9863014,17.4122576 24.9863014,16.6271186 Z M39.5342466,18.0508475 L38.5935123,18.0508475 C38.5808877,18.0153492 38.5649096,17.9808 38.5430137,17.9479593 L34.7063014,12.2224814 L38.0757041,10.0263322 L41.0136986,14.6602847 L41.0136986,16.6271186 C41.0136986,17.4122576 40.3501151,18.0508475 39.5342466,18.0508475 Z" id="Shape"></path>
                </g>
            </g>
        </g>
    </g>
</svg>