<?xml version="1.0" standalone="no"?>
<!DOCTYPE svg PUBLIC "-//W3C//DTD SVG 20010904//EN"
 "http://www.w3.org/TR/2001/REC-SVG-20010904/DTD/svg10.dtd">
<svg version="1.0" xmlns="http://www.w3.org/2000/svg"
 width="394.000000pt" height="146.000000pt" viewBox="0 0 394.000000 146.000000"
 preserveAspectRatio="xMidYMid meet">
<metadata>
Created by potrace 1.15, written by Peter Selinger 2001-2017
</metadata>
<g transform="translate(0.000000,146.000000) scale(0.100000,-0.100000)"
fill="#000000" stroke="none">
<path d="M510 725 l0 -255 165 0 165 0 0 30 0 30 -130 0 -130 0 0 225 0 225
-35 0 -35 0 0 -255z"/>
<path d="M1241 958 c-5 -13 -52 -124 -105 -247 -53 -124 -96 -228 -96 -233 0
-5 17 -8 37 -6 l37 3 78 190 c42 105 81 199 86 209 7 16 15 4 44 -65 58 -139
59 -129 -12 -129 -56 0 -61 -2 -70 -26 -6 -14 -10 -27 -10 -29 0 -2 39 -6 86
-7 l85 -3 31 -72 30 -73 40 0 c34 0 39 3 34 18 -4 9 -52 124 -108 255 l-101
237 -39 0 c-31 0 -40 -5 -47 -22z"/>
<path d="M1863 971 c-95 -25 -137 -113 -98 -207 21 -50 77 -73 178 -74 70 0
80 -3 104 -26 21 -21 24 -32 19 -62 -11 -68 -77 -92 -198 -73 -37 6 -74 14
-82 17 -13 5 -16 -1 -16 -29 0 -35 1 -36 48 -44 77 -13 203 -8 244 10 49 21
78 69 78 130 0 59 -21 102 -59 121 -15 8 -70 18 -122 22 -52 4 -100 12 -108
17 -37 30 -31 100 11 126 33 21 126 25 196 8 l62 -14 0 32 c0 22 -6 35 -17 40
-28 11 -204 15 -240 6z"/>
<path d="M2410 725 l0 -255 35 0 35 0 0 255 0 255 -35 0 -35 0 0 -255z"/>
<path d="M2638 866 c-60 -63 -108 -123 -108 -133 0 -10 46 -74 102 -141 l103
-122 53 0 53 0 -93 106 c-51 58 -103 118 -115 133 l-21 27 109 116 c60 64 109
119 109 122 0 3 -19 6 -42 6 -42 0 -46 -4 -150 -114z"/>
<path d="M3231 958 c-5 -13 -52 -124 -105 -247 -53 -124 -96 -228 -96 -233 0
-5 17 -8 37 -6 l37 3 78 190 c42 105 81 199 86 209 7 16 15 4 44 -65 58 -139
59 -129 -12 -129 -56 0 -61 -2 -70 -26 -6 -14 -10 -27 -10 -29 0 -2 39 -6 86
-7 l85 -3 31 -72 30 -73 40 0 c34 0 39 3 34 18 -4 9 -52 124 -108 255 l-101
237 -39 0 c-31 0 -40 -5 -47 -22z"/>
</g>
</svg>
