<?xml version="1.0" standalone="no"?>
<!DOCTYPE svg PUBLIC "-//W3C//DTD SVG 20010904//EN"
 "http://www.w3.org/TR/2001/REC-SVG-20010904/DTD/svg10.dtd">
<svg version="1.0" xmlns="http://www.w3.org/2000/svg"
 width="394.000000pt" height="146.000000pt" viewBox="0 0 394.000000 146.000000"
 preserveAspectRatio="xMidYMid meet">
<metadata>
Created by potrace 1.15, written by Peter Selinger 2001-2017
</metadata>
<g transform="translate(0.000000,146.000000) scale(0.100000,-0.100000)"
fill="#000000" stroke="none">
<path d="M540 725 l0 -255 150 0 150 0 0 40 0 40 -100 0 -100 0 0 215 0 215
-50 0 -50 0 0 -255z"/>
<path d="M1241 958 c-5 -13 -52 -124 -105 -247 -53 -124 -96 -228 -96 -233 0
-5 23 -8 51 -6 l51 3 76 188 c42 103 79 187 82 187 5 0 32 -60 67 -147 4 -9
-9 -13 -45 -13 -46 0 -51 -2 -60 -27 -5 -16 -13 -36 -17 -45 -6 -15 3 -18 81
-20 l88 -3 25 -62 24 -63 55 0 c47 0 53 2 48 18 -4 9 -53 124 -109 254 l-102
238 -53 0 c-45 0 -54 -3 -61 -22z"/>
<path d="M1871 966 c-80 -27 -120 -89 -107 -168 14 -89 55 -118 168 -118 42 0
88 -4 101 -9 59 -23 34 -97 -37 -115 -36 -10 -158 2 -198 19 -16 6 -18 1 -18
-38 0 -25 5 -49 10 -52 6 -4 50 -11 98 -17 114 -14 188 0 236 46 44 41 56 106
32 169 -24 62 -60 80 -174 85 -82 4 -95 7 -107 26 -19 29 -8 64 26 81 35 19
128 19 197 1 l52 -13 0 47 c0 57 -3 59 -140 65 -66 4 -108 1 -139 -9z"/>
<path d="M2390 725 l0 -255 50 0 50 0 0 255 0 255 -50 0 -50 0 0 -255z"/>
<path d="M2629 874 c-124 -141 -124 -136 1 -288 l95 -116 68 0 c37 0 67 3 67
6 0 3 -49 61 -110 129 -60 68 -110 127 -110 132 0 4 45 58 100 118 55 61 100
113 100 118 0 4 -26 7 -58 7 l-58 0 -95 -106z"/>
<path d="M3221 958 c-5 -13 -52 -124 -105 -247 -53 -124 -96 -228 -96 -233 0
-5 23 -8 51 -6 l51 3 76 188 c42 103 79 187 82 187 5 0 32 -60 67 -147 4 -9
-9 -13 -45 -13 -46 0 -51 -2 -60 -27 -5 -16 -13 -36 -17 -45 -6 -15 3 -18 81
-20 l88 -3 25 -62 24 -63 55 0 c47 0 53 2 48 18 -4 9 -53 124 -109 254 l-102
238 -53 0 c-45 0 -54 -3 -61 -22z"/>
</g>
</svg>
