<?xml version="1.0" encoding="UTF-8"?>
<svg width="33px" height="22px" viewBox="0 0 33 22" version="1.1" xmlns="http://www.w3.org/2000/svg" xmlns:xlink="http://www.w3.org/1999/xlink">
    <!-- Generator: Sketch 46.1 (44463) - http://www.bohemiancoding.com/sketch -->
    <title>Shape</title>
    <desc>Created with Sketch.</desc>
    <defs></defs>
    <g id="Moodboard" stroke="none" stroke-width="1" fill="none" fill-rule="evenodd">
        <g id="2a.-Desktop---Wishlist" transform="translate(-533.000000, -694.000000)" fill-rule="nonzero" fill="#000000">
            <g id="Wishlist" transform="translate(0.000000, 487.000000)">
                <g id="Cards" transform="translate(70.000000, 133.000000)">
                    <g id="Card" transform="translate(443.000000, 0.000000)">
                        <path d="M42.3929086,74.0000049 C40.295515,73.9979822 38.2451505,74.6213805 36.5038438,75.7905319 C32.077993,72.8311016 26.1440692,73.6109529 22.6331725,77.6134505 C19.1222758,81.6159482 19.1222758,87.6008976 22.6331725,91.6033952 C26.1440692,95.6058929 32.077993,96.3857441 36.5038438,93.4263138 C40.2822663,95.9492538 45.2479652,95.7853495 48.8517942,93.0187416 C52.4556231,90.2521336 53.8970134,85.4974072 52.4360259,81.1954055 C50.9750384,76.8934038 46.9362227,73.9997906 42.3929086,74.0000049 Z M30.6147789,93.8925452 C26.6910076,93.8947847 23.1894025,91.43026 21.8673976,87.7359009 C20.5453928,84.0415418 21.6884108,79.9149658 24.7227781,77.4272758 C27.7571453,74.9395859 32.0277376,74.6278779 35.3911709,76.6485961 C34.714382,77.2436889 34.1155468,77.9219614 33.6089104,78.667279 L33.6089104,78.667279 C30.6127544,83.0860282 31.3776945,89.044621 35.3928242,92.5632897 C33.9512973,93.434121 32.2989241,93.8938124 30.6147789,93.8925452 Z M38.2431184,89.8981655 L35.6771923,91.0174515 C35.2687195,90.5902296 34.9016955,90.1252218 34.5810525,89.6286771 L39.4301899,87.4975697 C39.1529325,88.3510695 38.7530598,89.1597256 38.2431184,89.8981655 L38.2431184,89.8981655 Z M39.8964213,84.6075962 C39.8956262,85.0362829 39.8652435,85.4644035 39.8054896,85.888906 L33.9494908,88.4647519 C33.7098445,87.9435726 33.5194377,87.4011344 33.3807546,86.844515 L39.8765817,83.9876076 C39.8914614,84.1926172 39.8997279,84.3992801 39.8997279,84.6075962 L39.8964213,84.6075962 Z M33.1476389,85.5003798 C33.1195328,85.2060919 33.104653,84.9084974 33.104653,84.6075962 C33.1050344,84.2795404 33.1226941,83.9517324 33.1575587,83.6255343 L39.1623548,80.9802497 C39.3875214,81.5104971 39.562436,82.0607031 39.6847985,82.6236328 L33.1476389,85.5003798 Z M33.4667264,82.0449768 C33.7032245,81.2254417 34.0520785,80.4426067 34.5033473,79.7187796 L37.5107052,78.3961373 C37.904559,78.8342619 38.2560746,79.3086696 38.5605526,79.8130179 L33.4667264,82.0449768 Z M42.3945619,93.8925452 C40.711604,93.8955062 39.0598865,93.4381251 37.6181699,92.5699029 C39.911607,90.5607518 41.2268763,87.659926 41.2268763,84.6109028 C41.2268763,81.5618797 39.911607,78.6610539 37.6181699,76.6519027 C40.981078,74.6312748 45.2511691,74.9428622 48.2851271,77.4302677 C51.3190852,79.9176733 52.4618036,84.0438046 51.1397098,87.7376043 C49.817616,91.4314039 46.3161828,93.8952892 42.3929086,93.8925452 L42.3945619,93.8925452 Z" id="Shape"></path>
                    </g>
                </g>
            </g>
        </g>
    </g>
</svg>