<?xml version="1.0" encoding="UTF-8"?>
<svg width="18px" height="16px" viewBox="0 0 18 16" version="1.1" xmlns="http://www.w3.org/2000/svg" xmlns:xlink="http://www.w3.org/1999/xlink">
    <!-- Generator: Sketch 46.1 (44463) - http://www.bohemiancoding.com/sketch -->
    <title>Heart</title>
    <desc>Created with Sketch.</desc>
    <defs></defs>
    <g id="Moodboard" stroke="none" stroke-width="1" fill="none" fill-rule="evenodd">
        <g id="1c.-Desktop---Inspiration" transform="translate(-1333.000000, -958.000000)" fill-rule="nonzero" fill="#000000">
            <g id="Content" transform="translate(0.000000, 427.000000)">
                <g id="Entry" transform="translate(1068.000000, 508.000000)">
                    <g id="Superlike" transform="translate(256.000000, 14.000000)">
                        <path d="M22.2573622,9 L22.2573622,9 C23.4725636,9 24.6894452,9.46401844 25.6140856,10.397072 C27.4631564,12.2632122 27.4607861,15.2899491 25.6140856,17.1574095 L18.4318227,24.414683 C18.319096,24.5286141 18.1654811,24.5927222 18.0052075,24.5927222 C17.844934,24.5927222 17.6913191,24.5286141 17.5785924,24.414683 C15.1823644,21.9964919 12.783136,19.5849618 10.3869381,17.1667708 C8.5376873,15.3006306 8.5376873,12.2725735 10.3869381,10.4064484 C12.2360989,8.54030817 15.2511941,8.54029017 17.1003849,10.4064484 L18.0005119,11.3159486 L18.9006388,10.397072 C19.8252492,9.46400944 21.0421609,9 22.2573622,9 Z" id="Heart"></path>
                    </g>
                </g>
            </g>
        </g>
    </g>
</svg>