<svg id="Layer_1" data-name="Layer 1" xmlns="http://www.w3.org/2000/svg" viewBox="0 0 34 33"><defs><style>.cls-1{fill:#ff9000;}</style></defs><title>superlike</title><g id="Moodboard"><g id="_1c.-Desktop---Inspiration" data-name="1c.-Desktop---Inspiration"><g id="Content"><g id="Entry"><g id="Superlike"><path id="Heart" class="cls-1" d="M22.26,9h0a4.71,4.71,0,0,1,3.36,1.4,4.81,4.81,0,0,1,0,6.76l-7.18,7.26a.6.6,0,0,1-.85,0l-7.19-7.25a4.81,4.81,0,0,1,0-6.76,4.73,4.73,0,0,1,6.71,0l.9.91.9-.92A4.71,4.71,0,0,1,22.26,9Z" transform="translate(-0.5)"/><g id="Sparkles"><path id="Rectangle" class="cls-1" d="M18.5,0h0a.5.5,0,0,1,.5.5v4a.5.5,0,0,1-.5.5h0a.5.5,0,0,1-.5-.5V.5A.5.5,0,0,1,18.5,0Z" transform="translate(-0.5)"/><path id="Rectangle-2" data-name="Rectangle" class="cls-1" d="M18.5,29h0a.5.5,0,0,1,.5.5v3a.5.5,0,0,1-.5.5h0a.5.5,0,0,1-.5-.5v-3A.5.5,0,0,1,18.5,29Z" transform="translate(-0.5)"/><path id="Rectangle-3" data-name="Rectangle" class="cls-1" d="M29.91,3.59h0a.5.5,0,0,1,0,.71L27.79,6.41a.5.5,0,0,1-.71,0h0a.5.5,0,0,1,0-.71l2.12-2.12A.5.5,0,0,1,29.91,3.59Z" transform="translate(-0.5)"/><path id="Rectangle-4" data-name="Rectangle" class="cls-1" d="M6.09,3.59h0a.5.5,0,0,0,0,.71L8.21,6.41a.5.5,0,0,0,.71,0h0a.5.5,0,0,0,0-.71L6.79,3.59A.5.5,0,0,0,6.09,3.59Z" transform="translate(-0.5)"/><path id="Rectangle-5" data-name="Rectangle" class="cls-1" d="M27.09,23.59h0a.5.5,0,0,0,0,.71l2.12,2.12a.5.5,0,0,0,.71,0h0a.5.5,0,0,0,0-.71l-2.12-2.12A.5.5,0,0,0,27.09,23.59Z" transform="translate(-0.5)"/><path id="Rectangle-6" data-name="Rectangle" class="cls-1" d="M34.5,15h0a.5.5,0,0,1-.5.5H31a.5.5,0,0,1-.5-.5h0a.5.5,0,0,1,.5-.5h3A.5.5,0,0,1,34.5,15Z" transform="translate(-0.5)"/><path id="Rectangle-7" data-name="Rectangle" class="cls-1" d="M4.5,15h0a.5.5,0,0,1-.5.5H1A.5.5,0,0,1,.5,15h0a.5.5,0,0,1,.5-.5H4A.5.5,0,0,1,4.5,15Z" transform="translate(-0.5)"/><path id="Rectangle-8" data-name="Rectangle" class="cls-1" d="M8.91,23.59h0a.5.5,0,0,1,0,.71L6.79,26.41a.5.5,0,0,1-.71,0h0a.5.5,0,0,1,0-.71l2.12-2.12A.5.5,0,0,1,8.91,23.59Z" transform="translate(-0.5)"/></g></g></g></g></g></g></svg>