<svg id="Layer_1" data-name="Layer 1" xmlns="http://www.w3.org/2000/svg" viewBox="0 0 32.02 27.39"><defs><style>.cls-1{fill:none;stroke:#000;stroke-linecap:round;stroke-linejoin:round;stroke-width:1.92px;}</style></defs><title>superlike-remove</title><g id="Moodboard"><g id="_3a.-Desktop---Angel" data-name="3a.-Desktop---Angel"><g id="Your-angel_s-pick" data-name="Your-angel&apos;s-pick"><g id="Group"><g id="No"><path id="Heart" d="M51.12,30.58a8.43,8.43,0,0,0-6,2.45l-1.6,1.61L41.94,33A8.48,8.48,0,0,0,30,33a8.38,8.38,0,0,0,0,11.88L42.8,57.66a1.08,1.08,0,0,0,1.52,0L57.09,44.91a8.39,8.39,0,0,0-6-14.33Zm0,2.09a6.3,6.3,0,0,1,4.45,10.76l-12,12-12-12a6.3,6.3,0,0,1,8.91-8.91l2.35,2.36a1.08,1.08,0,0,0,1.52,0l2.37-2.37A6.28,6.28,0,0,1,51.12,32.67Z" transform="translate(-27.54 -30.58)"/><polyline id="Path" class="cls-1" points="16.01 5.73 10.89 11.47 19.21 15.93 16.01 24.84"/></g></g></g></g></g></svg>