<?xml version="1.0" encoding="utf-8"?>
<!-- Generator: Adobe Illustrator 23.0.1, SVG Export Plug-In . SVG Version: 6.00 Build 0)  -->
<svg version="1.1" id="Layer_1" xmlns="http://www.w3.org/2000/svg" xmlns:xlink="http://www.w3.org/1999/xlink" x="0px" y="0px"
	 viewBox="0 0 187.09 45.64" style="enable-background:new 0 0 187.09 45.64;" xml:space="preserve">
<style type="text/css">
	.st0{fill-rule:evenodd;clip-rule:evenodd;}
	.st1{fill-rule:evenodd;clip-rule:evenodd;fill:#FFFFFF;}
</style>
<g>
	<path class="st0" d="M55.01,47.01c-5.47,0-10.71-3.07-14.1-7.25c-3.86-4.76-5.74-10.91-5.74-17c0-5.85,1.73-11.73,5.3-16.39
		c3.52-4.58,8.83-7.85,14.73-7.85c5.42,0,10.63,3.1,13.96,7.24c3.85,4.76,5.76,10.93,5.76,17.01c0,5.83-1.75,11.71-5.3,16.37
		C66.12,43.69,60.85,47.01,55.01,47.01L55.01,47.01z"/>
	<polygon class="st0" points="0,-0.47 16.49,-0.47 16.49,0 12.44,0 24.74,33.69 35.13,0 31.05,0 31.05,-0.47 39.94,-0.47 39.94,0 
		36.01,0 21.37,46.57 4.34,0 0,0 0,-0.47 	"/>
	<path class="st0" d="M111.01-1.29V14.9h-0.37c-0.7-3.19-1.68-6.29-3.39-9.1c-2.03-3.29-5.27-6.98-9.49-6.98
		c-9.69,0-10.57,17.37-10.57,24c0,5.93,0.47,12.05,2.63,17.61c1.51,3.9,3.69,5.81,7.74,5.81c3.22,0,6.64-1.63,8.35-4.42
		c0.44-0.73,0.47-1.54,0.47-2.37v-0.12V26.93h-4.24v-0.49h15.51v0.49h-3.63v18.71h-0.32c-0.92-1.53-2.36-2.53-4.2-2.53
		c-1.34,0-2.64,0.47-3.81,1.12l-1.05,0.58c-2.37,1.05-4.64,1.81-7.27,1.81c-12.03,0-18.44-12.83-18.44-23.47
		c0-7.78,2.97-16.1,9.27-20.96c2.83-2.19,6.25-3.8,9.9-3.8c1.42,0,2.83,0.44,4.15,0.97l0.97,0.37c1.1,0.41,2.3,0.8,3.49,0.8
		c1.47,0,2.8-0.97,3.93-1.81H111.01L111.01-1.29z"/>
	<path class="st0" d="M115.64-0.47h16.54V0h-4.39v35.91c0,5.63,5.8,9.05,10.86,9.05c5.46,0,10.05-3.8,10.05-9.37V0h-5.19v-0.47
		h42.69v16.66h-0.32c-0.49-4.41-1.34-8.93-4.37-12.37C178.44,0.34,174.28,0,169.99,0h-4.63v21.42c0.95,0.1,1.91,0.17,2.88,0.17
		c5.81,0,7.32-4,7.58-8.95h0.42v18.79h-0.42c-0.73-4.49-2.71-9.3-7.98-9.3c-0.83,0-1.64,0.05-2.47,0.12v22.91h6.93
		c3.59,0,7.17-1.56,9.71-4.07c2.17-2.14,3.68-4.91,4.2-7.91c0.29-1.68,0.42-3.39,0.51-5.08h0.37v17.54h-33.37v-0.47h3.88V0h-8.2
		v35.72c0,7.39-7.02,10.66-13.59,10.66c-7.44,0-15.64-3.61-15.64-12.12V0h-4.52V-0.47L115.64-0.47z"/>
	<path class="st1" d="M66.55,22.76c0-6.73-2.41-23.54-11.51-23.54c-9.13,0-11.51,16.79-11.51,23.54c0,6.74,2.39,23.56,11.51,23.56
		C64.14,46.31,66.55,29.49,66.55,22.76L66.55,22.76z"/>
</g>
</svg>
