<?xml version="1.0" encoding="utf-8"?>
<!-- Generator: Adobe Illustrator 23.0.1, SVG Export Plug-In . SVG Version: 6.00 Build 0)  -->
<svg version="1.1" id="Layer_1" xmlns="http://www.w3.org/2000/svg" xmlns:xlink="http://www.w3.org/1999/xlink" x="0px" y="0px"
	 viewBox="0 0 383 67" style="enable-background:new 0 0 383 67;" xml:space="preserve">
<path d="M36.46,22.16c-0.92,0-1.69-0.1-2.57-0.21V37.1c0,0.36-0.05,0.46-0.26,0.62l-8.63,5.49c1.28,0.62,2.82,1.03,4.42,1.03
	c5.44,0,11.6-2.98,14.48-10.42c0.15-0.41,0.51-0.51,0.51,0.21v0.51c0,8.16-6.21,15.5-15.4,15.5C19.01,50.04,13,42.49,13,34.64
	c0-5.9,3.23-11.4,10.58-13.71c0.31-0.1,0.36,0.05,0.15,0.21c-3.23,2.52-4.98,6.62-4.98,10.73c0,4.36,1.75,8.68,5.65,10.99l2.16-1.64
	c0.72-0.57,0.87-1.08,0.87-1.9V20.62c-2.36-0.87-4.47-1.39-6.42-1.39c-2.67,0-5.08,1.18-7.44,4.06c-0.26,0.31-0.41,0.31-0.41,0
	c0.31-5.8,5.49-9.09,10.63-9.09c5.9,0,11.35,2.88,17.3,2.88c2.1,0,4.26-0.46,6.06-1.44c0.26-0.1,0.31,0.1,0.21,0.31
	C45.5,20.57,40.98,22.16,36.46,22.16z M64.39,49.58c-0.21,0.2-0.21,0.15-0.36,0.05l-4.11-3.65c-0.41-0.36-0.62-0.67-0.62-1.33V30.58
	c0-0.15,0-0.31-0.21-0.46l-1.39-1.23c-0.15-0.1-0.36-0.15-0.56-0.05l-2.62,1.23v13.25c0,0.21-0.05,0.41,0.15,0.56l1.18,1.03
	c0.31,0.26,0.82,0.56,1.28,0.41l0.41-0.15c0.51-0.21,0.62,0.1,0.31,0.36l-4.72,4.06c-0.21,0.2-0.26,0.15-0.41,0.05l-4.16-3.7
	c-0.51-0.41-0.51-0.51-0.51-1.18V21.96c0-0.26,0-0.31-0.26-0.51l-0.51-0.46c-0.51-0.46-0.72-0.36-1.39-0.05l-1.03,0.46
	c-0.15,0.05-0.31-0.15-0.05-0.41l5.44-4.57c0.21-0.21,0.21-0.15,0.36-0.05l3.29,3.03c0.41,0.41,0.62,0.67,0.62,1.33v8.57l6.83-4.31
	c0.21-0.1,0.41-0.1,0.56,0.05l3.34,3.08c0.46,0.41,0.56,0.72,0.56,1.23v14.07c0,0.26,0,0.31,0.26,0.51l1.28,1.08
	c0.51,0.46,0.72,0.36,1.39,0.05l1.03-0.46c0.15-0.05,0.31,0.15,0.05,0.41L64.39,49.58z M86.26,32.59l-9.09,5.7v4.36
	c0,0.41,0.05,0.56,0.41,0.72l2.93,1.54c0.51,0.26,1.39,0.51,1.9,0.2l2.72-1.59c0.46-0.26,0.82-0.1,0.56,0.1l-7.44,6.01
	c-0.15,0.15-0.1,0.1-0.31,0l-6.62-3.49c-0.51-0.26-0.67-0.36-0.67-1.08V28.84c0-0.26,0.1-0.36,0.41-0.46l10.83-3.49
	c0.15-0.05,0.31-0.1,0.41,0.1l4.06,7.19C86.47,32.33,86.47,32.48,86.26,32.59z M77.28,27.61l-0.1,0.05v9.96l3.59-2.98
	c0.21-0.15,0.21-0.26,0.1-0.41L77.28,27.61z M123.37,43.16l-7.39,6.37c-0.21,0.15-0.36,0.26-0.56,0.15
	c-4.42-2.21-8.21-3.44-12.07-3.44c-3.18,0-6.31,1.08-9.81,3.39c-0.31,0.21-0.51,0.15-0.31-0.21c1.85-2.98,4.31-6.11,7.39-7.55
	c0.05-0.21,0.1-0.87,0.1-1.8V24.99c0-0.21,0.1-0.31,0.31-0.41l5.85-3.54c-1.28,0.26-2.72,0.46-3.95,0.46
	c-5.34,0-8.06-2.67-9.04-6.88c-0.05-0.21,0.05-0.26,0.21-0.21c2.72,1.33,4.98,1.8,7.19,1.8c3.7,0,8.98-2,12.22-2
	c6.52,0,10.11,2.72,10.11,11.6V42.6C123.63,42.85,123.53,43.01,123.37,43.16z M117.16,25.81c0-4.72-1.49-6.01-3.8-6.01
	c-1.69,0-3.85,0.67-6.16,1.18v15.4c0,0.26-0.1,0.46-0.26,0.56l-6.11,4.88c1.59-0.67,3.34-0.98,5.08-0.98c3.75,0,7.7,1.39,10.88,2.88
	c0.26,0.15,0.36,0,0.36-0.26V25.81z M142.02,49.58c-0.21,0.2-0.26,0.15-0.41,0.05l-4.67-4.11l-5.54,4.11
	c-0.21,0.15-0.26,0.1-0.46-0.05l-3.54-3.18c-0.56-0.46-0.62-0.57-0.62-1.18V30.22c0-0.26,0.21-0.31,0.31-0.36l11.91-4.93
	c0.21-0.1,0.41-0.1,0.62,0.1l3.18,3.18c0.46,0.46,0.62,0.72,0.62,1.03v14.48l0.92,0.82c1.13,0.98,1.28,0.92,1.8,0.67l0.72-0.36
	c0.46-0.26,0.82-0.05,0.41,0.31L142.02,49.58z M136.94,30.48c0-0.31-0.05-0.46-0.31-0.72l-1.85-1.85c-0.1-0.1-0.1-0.05-0.26,0
	l-1.28,0.57v14.84c0,0.51,0.1,0.77,0.46,1.08l0.67,0.62c0.46,0.41,1.03,0.62,1.69,0.31l0.87-0.41V30.48z M153.98,49.58
	c-0.21,0.2-0.26,0.15-0.41,0.05l-4.16-3.7c-0.51-0.41-0.51-0.51-0.51-1.18V30.58c0-0.26,0-0.31-0.26-0.51l-0.51-0.46
	c-0.51-0.46-0.72-0.36-1.39-0.05l-1.03,0.46c-0.15,0.05-0.31-0.15-0.05-0.41l5.44-4.57c0.21-0.21,0.21-0.15,0.36-0.05l3.29,3.03
	c0.41,0.41,0.62,0.67,0.62,1.33v13.96c0,0.21-0.05,0.41,0.15,0.56l1.18,1.03c0.31,0.26,0.82,0.56,1.28,0.41l0.41-0.15
	c0.51-0.21,0.62,0.1,0.31,0.36L153.98,49.58z M151.36,23.76c-0.15,0.15-0.21,0.1-0.36,0l-3.9-3.44c-0.1-0.1-0.1-0.21,0.05-0.36
	l3.85-3.39c0.15-0.1,0.21-0.1,0.36,0l3.9,3.44c0.15,0.1,0.15,0.21,0,0.31L151.36,23.76z M165.53,49.58
	c-0.21,0.2-0.26,0.15-0.41,0.05l-4.16-3.7c-0.51-0.41-0.51-0.51-0.51-1.18V21.96c0-0.26,0-0.31-0.26-0.51l-0.51-0.46
	c-0.51-0.46-0.72-0.36-1.39-0.05l-1.03,0.46c-0.15,0.05-0.31-0.15-0.05-0.41l5.44-4.57c0.21-0.21,0.21-0.15,0.36-0.05l3.29,3.03
	c0.41,0.41,0.62,0.67,0.62,1.33v22.59c0,0.21-0.05,0.41,0.15,0.56l1.18,1.03c0.31,0.26,0.82,0.56,1.28,0.41l0.41-0.15
	c0.51-0.21,0.62,0.1,0.31,0.36L165.53,49.58z M188.89,53.12l-5.65,4.57c-0.15,0.15-0.26,0.1-0.36,0.05c-2.98-2-5.34-2.93-7.91-2.93
	c-1.8,0-3.59,0.36-5.9,0.98c-0.21,0.05-0.26-0.1-0.15-0.26c2.41-3.65,5.39-4.77,8.16-4.77c4.11,0,7.96,2.52,9.5,3.54l0.15-0.1
	c0.41-0.92,0.56-1.8,0.56-2.62c0-2.62-2.16-4.72-4.83-6.06l-5.49,4.06c-0.26,0.15-0.31,0.15-0.46,0.05l-3.7-3.34
	c-0.51-0.46-0.51-0.46-0.51-1.18V30.69c0-0.26,0-0.31-0.26-0.51l-0.72-0.62c-0.51-0.46-0.72-0.36-1.39-0.05l-1.03,0.46
	c-0.15,0.05-0.31-0.15-0.05-0.41l5.44-4.57c0.21-0.21,0.21-0.15,0.36-0.05l3.49,3.18c0.41,0.41,0.62,0.67,0.62,1.33v14.02
	c0,0.26,0.05,0.51,0.21,0.67l1.23,1.13c0.36,0.36,1.03,0.21,1.44,0l0.82-0.36V30.69v-0.05c0-0.26,0-0.26-0.26-0.46l-0.72-0.62
	c-0.51-0.46-0.67-0.41-1.39-0.21l-0.41,0.1c-0.15,0.05-0.31-0.15-0.05-0.41l4.83-4.06c0.21-0.21,0.21-0.15,0.36-0.05l3.49,3.18
	c0.41,0.41,0.62,0.67,0.62,1.33v13.5c2.16,1.59,3.08,3.18,3.08,4.77C192.02,49.53,191.15,51.27,188.89,53.12z M224.01,22.16
	c-0.92,0-1.69-0.1-2.57-0.21V37.1c0,0.36-0.05,0.46-0.26,0.62l-8.62,5.49c1.28,0.62,2.82,1.03,4.41,1.03
	c5.44,0,11.6-2.98,14.48-10.42c0.15-0.41,0.51-0.51,0.51,0.21v0.51c0,8.16-6.21,15.5-15.4,15.5c-10.01,0-16.02-7.55-16.02-15.4
	c0-5.9,3.23-11.4,10.58-13.71c0.31-0.1,0.36,0.05,0.15,0.21c-3.23,2.52-4.98,6.62-4.98,10.73c0,4.36,1.75,8.68,5.65,10.99l2.16-1.54
	c0.77-0.51,0.87-1.08,0.87-1.9V20.62c-2.36-0.87-4.47-1.39-6.42-1.39c-2.67,0-5.08,1.18-7.45,4.06c-0.26,0.31-0.41,0.31-0.41,0
	c0.31-5.8,5.49-9.09,10.63-9.09c5.9,0,11.35,2.88,17.3,2.88c2.1,0,4.26-0.46,6.06-1.44c0.26-0.1,0.31,0.1,0.2,0.31
	C233.04,20.57,228.53,22.16,224.01,22.16z M249.99,32.59l-9.09,5.7v4.36c0,0.41,0.05,0.56,0.41,0.72l2.93,1.54
	c0.51,0.26,1.39,0.51,1.9,0.2l2.72-1.59c0.46-0.26,0.82-0.1,0.56,0.1l-7.44,6.01c-0.15,0.15-0.1,0.1-0.31,0l-6.62-3.49
	c-0.51-0.26-0.67-0.36-0.67-1.08V28.84c0-0.26,0.1-0.36,0.41-0.46l10.83-3.49c0.15-0.05,0.31-0.1,0.41,0.1l4.06,7.19
	C250.19,32.33,250.19,32.48,249.99,32.59z M241,27.61l-0.1,0.05v9.96l3.59-2.98c0.21-0.15,0.21-0.26,0.1-0.41L241,27.61z
	 M257.17,49.58c-0.21,0.2-0.26,0.15-0.41,0.05l-4.16-3.7c-0.51-0.41-0.51-0.51-0.51-1.18V21.96c0-0.26,0-0.31-0.26-0.51l-0.51-0.46
	c-0.51-0.46-0.72-0.36-1.39-0.05l-1.03,0.46c-0.16,0.05-0.31-0.15-0.05-0.41l5.44-4.57c0.2-0.21,0.2-0.15,0.36-0.05l3.29,3.03
	c0.41,0.41,0.62,0.67,0.62,1.33v22.59c0,0.21-0.05,0.41,0.15,0.56l1.18,1.03c0.31,0.26,0.82,0.56,1.28,0.41l0.41-0.15
	c0.51-0.21,0.62,0.1,0.31,0.36L257.17,49.58z M278.58,32.59l-9.09,5.7v4.36c0,0.41,0.05,0.56,0.41,0.72l2.93,1.54
	c0.51,0.26,1.39,0.51,1.9,0.2l2.72-1.59c0.46-0.26,0.82-0.1,0.57,0.1l-7.45,6.01c-0.15,0.15-0.1,0.1-0.31,0l-6.62-3.49
	c-0.51-0.26-0.67-0.36-0.67-1.08V28.84c0-0.26,0.1-0.36,0.41-0.46l10.83-3.49c0.15-0.05,0.31-0.1,0.41,0.1l4.06,7.19
	C278.79,32.33,278.79,32.48,278.58,32.59z M269.6,27.61l-0.1,0.05v9.96l3.59-2.98c0.2-0.15,0.2-0.26,0.1-0.41L269.6,27.61z
	 M297.27,53.12l-5.65,4.57c-0.15,0.15-0.26,0.1-0.36,0.05c-2.98-2-5.34-2.93-7.91-2.93c-1.8,0-3.6,0.36-5.9,0.98
	c-0.21,0.05-0.26-0.1-0.15-0.26c2.41-3.65,5.39-4.77,8.16-4.77c4.11,0,7.96,2.52,9.5,3.54l0.15-0.1c0.41-0.92,0.56-1.8,0.56-2.62
	c0-2.62-2.16-4.72-4.83-6.06l-5.54,4.11c-0.21,0.15-0.36,0.1-0.51-0.05l-3.49-3.18c-0.51-0.46-0.62-0.67-0.62-1.18V30.22
	c0-0.26,0.21-0.31,0.31-0.36l11.81-4.88c0.31-0.15,0.51-0.15,0.62-0.05l3.29,3.29c0.41,0.41,0.62,0.72,0.62,1.08v13.66
	c2.16,1.59,3.08,3.18,3.08,4.77C300.4,49.53,299.53,51.27,297.27,53.12z M290.85,30.38c0-0.21-0.05-0.36-0.26-0.56l-1.9-1.9
	c-0.1-0.1-0.15-0.05-0.31,0l-1.23,0.57v14.73c0,0.82,0.21,0.92,1.03,1.69c0.46,0.41,0.72,0.56,1.18,0.56c0.41,0,1.08-0.31,1.49-0.56
	V30.38z M314.01,31.51c-0.26,0.21-0.51,0.31-0.77,0.31c-0.26,0-0.51-0.1-0.77-0.31l-3.13-2.67l-0.31,0.26v14.27
	c0,0.31,0,0.36,0.2,0.51l0.82,0.72c0.87,0.72,1.08,0.82,2,0.46l0.62-0.26c0.41-0.15,0.51,0.05,0.26,0.31l-5.29,4.47
	c-0.2,0.2-0.26,0.15-0.41,0.05l-4.06-3.65c-0.46-0.41-0.62-0.56-0.62-1.13V30.22l-1.23-1.28c-0.1-0.1-0.15-0.1-0.31,0l-1.54,0.87
	c-0.46,0.26-0.62-0.1-0.31-0.36l5.29-4.47c0.21-0.15,0.31-0.15,0.41-0.05l3.59,3.54l3.54-3.49c0.21-0.15,0.36-0.21,0.56,0l2.72,2.52
	c0.51,0.46,0.82,0.72,1.13,0.72c0.21,0,0.46-0.1,0.77-0.31l0.72-0.46c0.46-0.31,0.67,0.15,0.41,0.41L314.01,31.51z M332.95,49.58
	c-0.21,0.2-0.26,0.15-0.41,0.05l-4.67-4.11l-5.55,4.11c-0.2,0.15-0.26,0.1-0.46-0.05l-3.54-3.18c-0.56-0.46-0.62-0.57-0.62-1.18
	V30.22c0-0.26,0.21-0.31,0.31-0.36l11.91-4.93c0.2-0.1,0.41-0.1,0.62,0.1l3.18,3.18c0.46,0.46,0.62,0.72,0.62,1.03v14.48l0.92,0.82
	c1.13,0.98,1.28,0.92,1.8,0.67l0.72-0.36c0.46-0.26,0.82-0.05,0.41,0.31L332.95,49.58z M327.87,30.48c0-0.31-0.05-0.46-0.31-0.72
	l-1.85-1.85c-0.1-0.1-0.1-0.05-0.26,0l-1.28,0.57v14.84c0,0.51,0.1,0.77,0.46,1.08l0.67,0.62c0.46,0.41,1.03,0.62,1.69,0.31
	l0.87-0.41V30.48z M357.13,45.83l-4.67,3.59c-0.51,0.41-0.62,0.31-1.23-0.05l-4.88-2.98v6.01l1.39,1.18c0.15,0.1,0.15,0.2,0,0.36
	l-4.06,3.75c-0.1,0.05-0.21,0.15-0.41,0l-4.52-3.65c-0.15-0.1-0.1-0.2,0-0.36l1.13-1.28V30.33l-1.13-1.39
	c-0.05-0.05-0.1-0.05-0.21,0l-1.54,0.77c-0.36,0.21-0.62-0.05-0.31-0.31l5.24-4.42c0.15-0.15,0.36-0.15,0.46-0.05l3.8,3.75l6.88-3.7
	c0.21-0.1,0.36-0.05,0.41,0l3.44,3.18c0.26,0.26,0.57,0.67,0.57,1.13v15.71C357.49,45.37,357.49,45.58,357.13,45.83z M351.02,30.64
	c0-0.31-0.1-0.56-0.31-0.77l-1.44-1.39c-0.1-0.1-0.21-0.1-0.36-0.05l-2.57,0.98v16.27l1.44,0.46c1.18,0.36,1.69,0.31,2.21-0.15
	l0.51-0.46c0.46-0.41,0.51-0.87,0.51-1.69V30.64z M377.42,49.58c-0.21,0.2-0.21,0.15-0.36,0.05l-4.11-3.65
	c-0.41-0.36-0.62-0.67-0.62-1.33V30.58c0-0.15,0-0.31-0.21-0.46l-1.39-1.23c-0.15-0.1-0.36-0.15-0.56-0.05l-2.62,1.23v13.25
	c0,0.21-0.05,0.41,0.15,0.56l1.18,1.03c0.31,0.26,0.82,0.56,1.28,0.41l0.41-0.15c0.51-0.21,0.62,0.1,0.31,0.36l-4.72,4.06
	c-0.21,0.2-0.26,0.15-0.41,0.05l-4.16-3.7c-0.51-0.41-0.51-0.51-0.51-1.18V21.96c0-0.26,0-0.31-0.26-0.51l-0.51-0.46
	c-0.51-0.46-0.72-0.36-1.39-0.05l-1.03,0.46c-0.15,0.05-0.31-0.15-0.05-0.41l5.44-4.57c0.2-0.21,0.2-0.15,0.36-0.05l3.29,3.03
	c0.41,0.41,0.62,0.67,0.62,1.33v8.57l6.83-4.31c0.21-0.1,0.41-0.1,0.56,0.05l3.34,3.08c0.46,0.41,0.56,0.72,0.56,1.23v14.07
	c0,0.26,0,0.31,0.26,0.51l1.28,1.08c0.51,0.46,0.72,0.36,1.39,0.05l1.03-0.46c0.15-0.05,0.31,0.15,0.05,0.41L377.42,49.58z"/>
</svg>
