<?xml version="1.0" encoding="utf-8"?>
<!-- Generator: Adobe Illustrator 23.0.1, SVG Export Plug-In . SVG Version: 6.00 Build 0)  -->
<svg version="1.1" id="Layer_1" xmlns="http://www.w3.org/2000/svg" xmlns:xlink="http://www.w3.org/1999/xlink" x="0px" y="0px"
	 viewBox="0 0 189.92 99.29" style="enable-background:new 0 0 189.92 99.29;" xml:space="preserve">
<style type="text/css">
	.st0{fill-rule:evenodd;clip-rule:evenodd;fill:#010202;}
</style>
<g>
	<path class="st0" d="M139.07,0c25.15,0,45.67,20.52,45.67,45.67c0,9.49-2.92,18.32-7.91,25.64l13.09,17.21h-27.97l-1.79-2.36
		c-6.31,3.31-13.49,5.18-21.09,5.18c-23.15,0-42.37-17.37-45.28-39.75C90.87,73.97,71.65,91.34,48.5,91.34
		c-25.15,0-45.67-20.52-45.67-45.67C2.83,20.52,23.35,0,48.5,0c20.14,0,37.3,13.15,43.35,31.3H63.5c-3.79-3.95-9.11-6.41-14.99-6.41
		c-11.45,0-20.78,9.34-20.78,20.78c0,11.45,9.34,20.78,20.78,20.78c6.25,0,11.88-2.79,15.69-7.18H51.33V38.74h16.77h13.25h12.3
		c0.05,0.33,0.1,0.67,0.14,1C96.71,17.37,115.93,0,139.07,0L139.07,0z M130.35,46.95h27.97l1.32,1.73c0.14-0.99,0.22-1.99,0.22-3.02
		c0-11.45-9.34-20.78-20.78-20.78c-11.45,0-20.78,9.34-20.78,20.78c0,11.45,9.34,20.78,20.78,20.78c1.91,0,3.77-0.26,5.53-0.75
		L130.35,46.95L130.35,46.95z"/>
</g>
</svg>
