<?xml version="1.0" encoding="utf-8"?>
<!-- Generator: Adobe Illustrator 23.0.1, SVG Export Plug-In . SVG Version: 6.00 Build 0)  -->
<svg version="1.1"
	 id="svg40427" xmlns:cc="http://creativecommons.org/ns#" xmlns:dc="http://purl.org/dc/elements/1.1/" xmlns:inkscape="http://www.inkscape.org/namespaces/inkscape" xmlns:rdf="http://www.w3.org/1999/02/22-rdf-syntax-ns#" xmlns:sodipodi="http://sodipodi.sourceforge.net/DTD/sodipodi-0.dtd" xmlns:svg="http://www.w3.org/2000/svg"
	 xmlns="http://www.w3.org/2000/svg" xmlns:xlink="http://www.w3.org/1999/xlink" x="0px" y="0px" viewBox="0 0 1000 328.65"
	 style="enable-background:new 0 0 1000 328.65;" xml:space="preserve">
<style type="text/css">
	.st0{fill:#121212;}
</style>
<sodipodi:namedview  bordercolor="#666666" borderopacity="1.0" fit-margin-bottom="0" fit-margin-left="0" fit-margin-right="0" fit-margin-top="0" id="base" inkscape:current-layer="layer1" inkscape:cx="544.19547" inkscape:cy="39.075978" inkscape:document-units="px" inkscape:pageopacity="0.0" inkscape:pageshadow="2" inkscape:window-height="1030" inkscape:window-maximized="0" inkscape:window-width="1032" inkscape:window-x="875" inkscape:window-y="-13" inkscape:zoom="0.80530071" pagecolor="#ffffff" showgrid="false">
	</sodipodi:namedview>
<g id="layer1" transform="translate(-102.81367,-185.61612)" inkscape:groupmode="layer" inkscape:label="Layer 1">
	<g id="g96" transform="matrix(3.391325,0,0,3.391325,103.08498,185.61612)">
		<path id="path98" vector-effect="none" inkscape:connector-curvature="0" class="st0" d="M66.92,51.66L72.06,49V8.57h-3.89
			l-9.5,12.6H57.6L58.2,7h41.18l0.6,14.18h-1.14l-9.3-12.6h-4V48.9l5.17,2.73V53H66.92L66.92,51.66 M104,49.88V5.09l-4-1.6V2.66
			L114.42,0H116v21.26l0.34-0.34c3.46-2.94,7.83-4.56,12.37-4.59c6.32,0,9.11,3.57,9.11,10.22v23.33l3.38,1.84V53h-18.87v-1.28
			l3.39-1.85v-23.4c0-3.66-1.6-5.12-4.59-5.12c-1.81-0.04-3.57,0.54-5,1.65v26.94l3.33,1.84V53h-18.88v-1.22L104,49.88
			 M151.46,36.12c0.39,7.4,3.71,13.13,11.57,13.13c3.8,0,6.5-1.76,9-3.1v1.46c-3.4,4.15-8.51,6.53-13.88,6.46
			c-12.18,0-18.4-6.77-18.4-18.49c0-11.46,6.81-18.6,17.81-18.6c10.35,0,15.72,5.17,15.72,18.8v0.35L151.46,36.12 M151.26,34.41
			L162,33.76c0-9.17-1.57-15.26-4.72-15.26C153.92,18.51,151.26,25.58,151.26,34.41L151.26,34.41 M-0.08,70.93
			c0-19.49,12.9-26.43,27.27-26.43c6.1,0,11.85,1,15.07,2.31l0.28,13.6h-1.37l-8.43-13.16c-1.69-0.68-3.52-0.97-5.34-0.86
			c-7.64,0-11.55,8.83-11.42,23.3C16.12,87,19.13,94.87,26.14,94.87c1.44,0.05,2.87-0.19,4.21-0.7V75.63L25.72,73v-1.58h22.36v1.66
			l-4.56,2.55v18.3c-5.43,1.92-11.14,2.89-16.9,2.87C10.29,96.8-0.08,89.23-0.08,70.93L-0.08,70.93 M46,61.84v-1.13l15-2.65
			l1.65,0.14v29.64c0,3.57,1.72,4.67,4.6,4.67c1.89,0.03,3.7-0.82,4.88-2.3V63.62l-4.12-1.79v-1.16l15-2.65l1.51,0.14v34l4.05,1.7
			v1.08l-14.71,1.8l-1.51-0.14v-4.47h-0.41c-3.02,2.95-7.05,4.64-11.27,4.74c-7.21,0-10.51-4.26-10.51-10.72V63.62L46,61.84
			 M140.27,58l1.24,0.14v11h0.34c1.61-8,5.15-11,9.48-11c0.63-0.03,1.26,0.07,1.85,0.28v11.14c-1.01-0.21-2.05-0.31-3.09-0.27
			c-2.81-0.07-5.61,0.48-8.18,1.63v21.69l3.42,1.9V96h-19.5v-1.48l3.51-1.91V63l-4.12-1.23v-1L140.27,58 M178,58.92V47.35
			l-4.12-1.44V45l15.18-2.79l1.44,0.21v49.69l4.19,1.52v1.28l-15,2l-1.17-0.14v-4.09h-0.34c-2.59,2.75-6.22,4.27-10,4.19
			c-8.18,0-14.15-6.25-14.15-19c0-13.47,6.94-20.09,17.45-20.09C173.71,57.67,175.94,58.06,178,58.92L178,58.92 M178,90.75V61
			c-1.15-0.98-2.65-1.44-4.15-1.29c-4.06,0.14-6.57,6.27-6.57,17.2c0,9.82,1.8,15.32,7.21,15.13
			C175.78,92.05,177.02,91.59,178,90.75L178,90.75 M211.14,58l1.3,0.14v34.47l3.43,1.9V96h-19.5v-1.48l3.5-1.91V63.55l-4.19-1.65
			v-1.15L211.14,58 M212.51,48.68c-0.11,3.58-3.08,6.39-6.66,6.32c-2.36,0.09-4.57-1.11-5.78-3.14c-1.21-2.03-1.21-4.55,0-6.58
			c1.21-2.03,3.42-3.23,5.78-3.14c3.63-0.04,6.61,2.86,6.66,6.49V48.68 M256.3,92.61V63.23l-4.12-1.44v-1.42l15-2.79l1.51,0.14v4.4
			h0.41c3.56-3.05,8.09-4.73,12.78-4.74c6.53,0,9.41,3.09,9.41,10v25.17l3.5,2V96h-19.53v-1.48l3.5-1.91V68
			c0-3.78-1.65-5.29-4.74-5.29c-1.85-0.05-3.67,0.53-5.15,1.64V92.6l3.44,1.9V96H252.8v-1.48L256.3,92.61 M235.08,74.15v-4.93
			c0-7.42-1.62-9.85-6.21-9.85c-0.52,0.01-1.04,0.06-1.55,0.14l-8.17,11.07H218v-10.2c4.41-1.52,9.04-2.32,13.71-2.38
			c10,0,15.79,2.77,15.79,11.14v24l3.58,0.94v0.94c-2.27,1.17-4.8,1.75-7.36,1.69c-4.93,0-7.29-1.62-8.37-4.32H235
			c-2.09,2.83-5.06,4.45-9.72,4.45c-5.94,0-10-3.71-10-10.12c0-6.21,3.85-9.58,11.68-11.07L235.08,74.15 M235.08,90.75V75.9
			l-2.5,0.2c-3.92,0.34-5.33,2.84-5.33,8.37c0,6,2,7.56,4.72,7.56C233.15,92.14,234.32,91.66,235.08,90.75L235.08,90.75
			 M108.47,74.15v-4.93c0-7.42-1.62-9.85-6.21-9.85c-0.52,0.01-1.04,0.06-1.55,0.14l-8.17,11.06H91.4V60.38
			c4.41-1.51,9.04-2.32,13.7-2.38c10,0,15.79,2.77,15.79,11.14v24l3.58,0.94v0.94c-2.27,1.17-4.8,1.75-7.36,1.69
			c-4.93,0-7.29-1.62-8.37-4.32h-0.34c-2.09,2.83-5.06,4.45-9.72,4.45c-5.94,0-10-3.71-10-10.12c0-6.21,3.85-9.58,11.68-11.07
			L108.47,74.15 M108.47,90.75V75.9l-2.5,0.2c-3.92,0.34-5.33,2.84-5.33,8.37c0,6,2,7.56,4.72,7.56
			C106.54,92.14,107.71,91.66,108.47,90.75"/>
	</g>
</g>
</svg>
